#!OML:ASF F:\VICON\USERDATA\INSTALL\rory3\rory3.ASF
:FULLY-SPECIFIED
:DEGREES
247
root -0.0359204 15.2014 4.69979 -157.993 -23.3271 -189.507
lowerback -3.18699 -8.04836 1.99963
upperback -5.83922 -11.5078 -3.5043
thorax -5.45253 -6.18909 -4.43375
lowerneck -21.28 -0.264438 -4.76223
upperneck 28.077 1.40127 3.14459
head 12.8743 0.920373 2.35603
rclavicle 6.16232e-014 3.73715e-014
rhumerus -120.92 -21.6643 77.1494
rradius 10.0015
rwrist 86.4031
rhand -7.60831 2.41783
rfingers 7.12502
rthumb 18.2857 -26.7427
lclavicle 6.16232e-014 3.73715e-014
lhumerus -5.7841 -8.3788 63.5431
lradius 24.4954
lwrist -9.86648
lhand -8.61962 27.6654
lfingers 7.12502
lthumb 17.3126 56.9143
rfemur -42.6622 9.27009 24.7042
rtibia 61.865
rfoot -45.7792 -27.1018
rtoes 28.439
lfemur -36.8237 -1.12304 -19.6222
ltibia 66.9842
lfoot -26.3598 27.713
ltoes 14.0774
248
root -0.0710253 15.0288 4.62006 -159.922 -23.0865 -184.058
lowerback -2.16 -7.37657 7.38923
upperback -5.76792 -10.3142 -1.98862
thorax -6.54521 -5.74909 -5.63493
lowerneck -21.5738 -0.185121 -5.18519
upperneck 27.2795 1.5784 3.07009
head 12.5997 0.909248 2.39984
rclavicle 4.06018e-014 1.90833e-014
rhumerus -113.699 -32.5856 55.3737
rradius 8.84411
rwrist 68.4287
rhand -6.04316 -0.273226
rfingers 7.12502
rthumb 19.7909 -29.2857
lclavicle 4.06018e-014 1.90833e-014
lhumerus -8.48698 -6.28526 64.7127
lradius 25.5501
lwrist -5.33476
lhand -8.84534 29.0057
lfingers 7.12502
lthumb 17.0953 58.2736
rfemur -43.7342 10.6259 30.5441
rtibia 63.5805
rfoot -44.8866 -28.3923
rtoes 26.3434
lfemur -40.0962 0.308115 -15.3015
ltibia 71.6839
lfoot -29.2081 29.2063
ltoes 13.3426
249
root -0.150978 14.8552 4.57118 -161.328 -21.9676 -179.522
lowerback -0.775519 -6.75345 12.2807
upperback -5.6601 -9.13597 -0.910306
thorax -7.7183 -5.39377 -7.04594
lowerneck -22.1154 0.228156 -4.98152
upperneck 26.4074 2.00501 2.97798
head 12.3389 1.06906 2.3731
rclavicle -7.00716e-015 1.19271e-015
rhumerus -100.046 -41.2512 28.8241
rradius 7.66318
rwrist 51.1047
rhand -5.45394 -0.825396
rfingers 7.12502
rthumb 20.3572 -29.7784
lclavicle -7.00716e-015 1.19271e-015
lhumerus -11.4098 -3.46966 65.2075
lradius 26.8383
lwrist -1.76664
lhand -9.16796 30.3836
lfingers 7.12502
lthumb 16.7848 59.6781
rfemur -44.5833 11.1635 35.0299
rtibia 65.1941
rfoot -44.1971 -27.633
rtoes 24.5238
lfemur -43.5092 1.96641 -12.1814
ltibia 76.3812
lfoot -31.4512 30.4102
ltoes 16.7662
250
root -0.237553 14.6734 4.52371 -161.38 -19.9667 -176.435
lowerback -0.0463567 -5.98484 15.5759
upperback -5.55245 -7.86547 -0.269656
thorax -8.17688 -4.94902 -8.21854
lowerneck -22.589 0.871318 -4.16941
upperneck 25.1442 2.62597 2.4549
head 11.9238 1.315 2.10194
rclavicle 2.89232e-014 3.45885e-014
rhumerus -80.2372 -44.1594 -2.49717
rradius 7.38882
rwrist 34.1678
rhand -4.99137 1.249
rfingers 7.12502
rthumb 20.8017 -27.6559
lclavicle 2.89232e-014 3.45885e-014
lhumerus -14.3287 -1.05066 65.204
lradius 28.1469
lwrist 1.79102
lhand -9.55708 31.196
lfingers 7.12502
lthumb 16.4101 60.5218
rfemur -45.9052 12.13 37.6152
rtibia 66.6865
rfoot -43.7582 -26.593
rtoes 23.1402
lfemur -47.7439 3.88586 -10.5909
ltibia 81.0259
lfoot -31.31 31.4822
ltoes 20.2772
251
root -0.30186 14.5462 4.40297 -162.049 -19.1405 -175.596
lowerback 0.694509 -5.88448 16.4629
upperback -4.86762 -7.53552 -0.0494133
thorax -7.86015 -4.73507 -8.47718
lowerneck -23.9065 1.27049 -2.5806
upperneck 24.512 3.0153 0.743604
head 11.9795 1.36488 1.25754
rclavicle 4.53229e-014 -3.1408e-014
rhumerus -60.6798 -38.8569 -32.2578
rradius 9.31266
rwrist 17.267
rhand -4.38821 3.63591
rfingers 7.12502
rthumb 21.3811 -25.2044
lclavicle 4.53229e-014 -3.1408e-014
lhumerus -17.3854 0.458456 65.3372
lradius 28.6047
lwrist 5.4566
lhand -11.0337 28.9844
lfingers 7.12502
lthumb 14.988 58.422
rfemur -44.9689 11.7976 38.7744
rtibia 67.6979
rfoot -44.6268 -26.2945
rtoes 21.3666
lfemur -49.8652 3.84095 -10.4376
ltibia 84.4155
lfoot -30.9183 29.0528
ltoes 15.1556
252
root -0.383874 14.3964 4.32013 -160.968 -14.7911 -174.675
lowerback 1.01792 -4.328 16.5664
upperback -4.82553 -5.39343 0.0954851
thorax -7.37831 -3.65632 -8.66071
lowerneck -24.5436 1.38836 -1.9196
upperneck 23.5901 3.24245 -0.664674
head 11.7839 1.31191 0.648418
rclavicle 1.22253e-014 -4.81059e-014
rhumerus -47.3359 -27.0037 -54.9926
rradius 13.5539
rwrist 0.529441
rhand -4.63223 4.41227
rfingers 7.12502
rthumb 21.1467 -24.4545
lclavicle 1.22253e-014 -4.81059e-014
lhumerus -20.3882 1.52827 65.7874
lradius 29.379
lwrist 10.7842
lhand -11.6808 28.1991
lfingers 7.12502
lthumb 14.3646 57.6821
rfemur -45.8298 13.2751 38.6545
rtibia 68.8104
rfoot -44.0642 -24.7962
rtoes 17.9859
lfemur -53.6026 6.4653 -11.5905
ltibia 87.6022
lfoot -29.5287 28.7383
ltoes 8.91582
253
root -0.415615 14.3638 4.16597 -160.693 -12.6247 -175.325
lowerback 1.45779 -3.72294 15.0964
upperback -4.47529 -4.54932 0.127188
thorax -6.84039 -3.08879 -7.91199
lowerneck -24.5735 1.40742 -2.17296
upperneck 22.6123 3.45286 -1.27151
head 11.4258 1.29962 0.487527
rclavicle -2.41026e-014 2.14687e-014
rhumerus -40.9828 -16.9946 -66.8683
rradius 18.3973
rwrist -9.1696
rhand -5.89229 4.36218
rfingers 7.12502
rthumb 19.9359 -24.6352
lclavicle -2.41026e-014 2.14687e-014
lhumerus -23.0564 2.76274 66.3975
lradius 29.4982
lwrist 15.5593
lhand -12.0009 27.2274
lfingers 7.12502
lthumb 14.0562 56.7321
rfemur -44.9809 11.7021 37.9385
rtibia 69.17
rfoot -44.3364 -22.9334
rtoes 15.6638
lfemur -55.5769 6.43754 -13.216
ltibia 89.1967
lfoot -27.9758 28.5232
ltoes 4.57323
254
root -0.391788 14.3837 3.99116 -160.625 -10.6511 -176.29
lowerback 1.82576 -3.31763 12.7949
upperback -3.99519 -4.03128 -0.0414123
thorax -6.19073 -2.63918 -6.87869
lowerneck -23.6159 1.53848 -2.87898
upperneck 21.042 3.56114 -0.622003
head 10.6323 1.39006 0.825104
rclavicle 5.19325e-014 -6.36111e-015
rhumerus -36.9296 -10.3361 -73.7081
rradius 22.9446
rwrist -13.6003
rhand -7.27471 5.00445
rfingers 7.12502
rthumb 18.6066 -24.1257
lclavicle 5.19325e-014 -6.36111e-015
lhumerus -25.066 3.9398 66.4774
lradius 28.7105
lwrist 19.1912
lhand -11.7627 26.5768
lfingers 7.12502
lthumb 14.2856 56.0654
rfemur -43.8722 10.1118 36.9749
rtibia 69.1701
rfoot -44.5573 -20.7186
rtoes 15.263
lfemur -57.1662 6.22645 -14.6117
ltibia 90.0584
lfoot -26.7472 27.1981
ltoes 3.80208
255
root -0.362547 14.4501 3.80682 -160.842 -9.07365 -177.222
lowerback 3.23294 -3.10158 10.6972
upperback -4.27509 -3.6424 -0.234853
thorax -7.06121 -2.40176 -5.87385
lowerneck -23.4358 1.38174 -3.0041
upperneck 21.5045 3.38717 -0.469546
head 10.7667 1.32325 0.878733
rclavicle -8.59744e-015 5.96354e-016
rhumerus -35.1439 -4.44813 -78.129
rradius 27.9847
rwrist -17.0328
rhand -7.88803 6.08892
rfingers 7.12502
rthumb 18.0166 -23.0966
lclavicle -8.59744e-015 5.96354e-016
lhumerus -28.304 4.91834 66.2048
lradius 28.0331
lwrist 21.914
lhand -10.8262 26.5204
lfingers 7.12502
lthumb 15.1879 55.943
rfemur -42.418 8.23685 36.087
rtibia 68.6573
rfoot -44.4288 -18.4714
rtoes 15.3964
lfemur -58.2124 5.56794 -15.6034
ltibia 90.3003
lfoot -26.398 24.9059
ltoes 3.20143
